<svg t="1735314706650" class="icon" viewBox="0 0 1024 1024" version="1.1" xmlns="http://www.w3.org/2000/svg" p-id="23549" width="200" height="200"><path d="M1015.088687 4.510952a20.351893 20.351893 0 0 0-23.244678-1.612791L12.137153 564.405613a23.321478 23.321478 0 0 0-12.006337 22.655881c0.767996 9.47195 6.911964 17.484708 15.462318 20.121494l330.801464 118.015381a20.710291 20.710291 0 0 0 21.324688-4.684776 24.268673 24.268673 0 0 0 6.860764-22.067084 22.80948 22.80948 0 0 0-14.438324-17.407908L77.31441 579.586333 911.409231 101.355244 453.939633 679.16981a179.634257 179.634257 0 0 0-38.0926 111.333816V1000.960121c0 12.723133 9.651149 23.014279 21.503887 23.014279 11.903938 0 21.503887-10.291146 21.503887-23.014279V790.529226c0-29.721444 9.830348-58.495693 27.750255-81.202774l479.229484-604.745625-129.074523 746.440881-297.880036-106.495441a20.710291 20.710291 0 0 0-21.324688 4.659176 24.268673 24.268673 0 0 0-6.886364 22.067084c1.561592 8.166357 7.065563 14.796722 14.438324 17.407909l322.635107 115.045796a20.223894 20.223894 0 0 0 6.886363 1.126394c10.572744 0.179199 19.711897-7.935958 21.503888-19.0719l147.532025-858.235495a23.782275 23.782275 0 0 0-8.601555-23.014279z" fill="#2c2c2c" p-id="23550"></path></svg>