<?xml version="1.0" standalone="no"?><!DOCTYPE svg PUBLIC "-//W3C//DTD SVG 1.1//EN" "http://www.w3.org/Graphics/SVG/1.1/DTD/svg11.dtd"><svg t="1699671304079" class="icon" viewBox="0 0 1024 1024" version="1.1" xmlns="http://www.w3.org/2000/svg" p-id="5223" width="200" height="200" xmlns:xlink="http://www.w3.org/1999/xlink"><path d="M938.666667 1024v-28.444444a170.666667 170.666667 0 0 0-170.666667-170.666667H256a170.666667 170.666667 0 0 0-170.666667 170.666667v28.444444h853.333334z" fill="#66757F" p-id="5224"></path><path d="M341.333333 781.710222C388.892444 826.510222 447.886222 853.333333 512 853.333333s123.079111-26.851556 170.666667-71.623111V739.555556H341.333333v42.154666z" fill="#EF9645" p-id="5225"></path><path d="M760.888889 581.262222c33.792 5.916444 74.496 3.669333 68.721778 26.083556-13.624889 52.736-74.069333 33.194667-84.736 33.792-10.666667 0.568889 16.014222-59.875556 16.014222-59.875556z" fill="#66757F" p-id="5226"></path><path d="M769.763556 587.235556c53.333333 7.111111 72.277333 11.832889 33.166222 27.249777-21.959111 8.675556-63.800889 136.618667-94.748445 117.134223-30.919111-19.484444 61.582222-144.384 61.582223-144.384z" fill="#292F33" p-id="5227"></path><path d="M263.253333 581.262222c-33.792 5.916444-74.496 3.669333-68.721777 26.083556 13.624889 52.736 74.069333 33.194667 84.736 33.792 10.666667 0.568889-16.014222-59.875556-16.014223-59.875556z" fill="#66757F" p-id="5228"></path><path d="M254.378667 587.235556c-53.333333 7.111111-72.277333 11.832889-33.166223 27.249777 21.959111 8.675556 63.800889 136.618667 94.748445 117.134223 30.947556-19.484444-61.582222-144.384-61.582222-144.384z m-25.258667-273.464889c-55.552 0-65.564444 89.998222-18.887111 102.229333 0 0-38.883556 94.435556 55.552 94.435556-15.559111-47.786667-44.430222-125.553778-22.215111-182.215112m551.253333-14.449777c55.552 0 65.564444 89.998222 18.887111 102.229333 0 0 38.883556 94.435556-55.552 94.435556 15.559111-47.786667 44.430222-125.553778 22.215111-182.215112" fill="#292F33" p-id="5229"></path><path d="M227.555556 440.888889a355.555556 284.444444 90 1 0 568.888888 0 355.555556 284.444444 90 1 0-568.888888 0Z" fill="#F7DECE" p-id="5230"></path><path d="M398.222222 483.555556a28.444444 28.444444 0 0 1-28.444444-28.444445v-28.444444a28.444444 28.444444 0 0 1 56.888889 0v28.444444a28.444444 28.444444 0 0 1-28.444445 28.444445z m227.555556 0a28.444444 28.444444 0 0 1-28.444445-28.444445v-28.444444a28.444444 28.444444 0 1 1 56.888889 0v28.444444a28.444444 28.444444 0 0 1-28.444444 28.444445z" fill="#662113" p-id="5231"></path><path d="M540.444444 583.111111a14.222222 14.222222 0 0 1-14.222222 14.222222h-28.444444a14.222222 14.222222 0 0 1 0-28.444444h28.444444a14.222222 14.222222 0 0 1 14.222222 14.222222z" fill="#C1694F" p-id="5232"></path><path d="M217.799111 420.636444c4.209778 4.181333 25.258667 16.810667 29.468445 29.411556 4.209778 12.600889 12.657778 84.024889 37.916444 105.045333 26.055111 21.674667 124.302222 13.596444 143.132444 4.238223 42.097778-20.992 47.274667-79.587556 54.727112-109.283556 4.209778-16.810667 29.468444-16.810667 29.468444-16.810667s25.258667 0 29.468444 16.810667c7.452444 29.696 12.629333 88.291556 54.727112 109.255111 18.830222 9.386667 117.077333 17.464889 143.189333-4.181333 25.230222-21.020444 33.649778-92.444444 37.859555-105.073778 4.152889-12.600889 25.258667-25.201778 29.44-29.411556 4.209778-4.209778 4.209778-21.020444 0-25.230222-8.419556-8.391111-107.747556-15.900444-214.698666-4.209778-21.333333 2.332444-29.44 8.391111-79.985778 8.391112-50.517333 0-58.652444-6.087111-79.985778-8.391112-106.922667-11.690667-206.279111-4.209778-214.698666 4.209778-4.238222 4.209778-4.238222 21.048889-0.028445 25.230222z" fill="#292F33" p-id="5233"></path><path d="M223.516444 238.791111S262.172444-14.392889 392.248889 0.654222c99.896889 11.548444 139.093333 23.466667 222.805333 2.759111 55.381333-13.710222 115.626667 32.312889 151.950222 124.558223a788.48 788.48 0 0 1 34.816 114.944s112.014222-10.951111 118.471112 49.265777c6.485333 60.216889-123.847111 134.144-451.953778 134.144C284.444444 426.296889 94.72 359.253333 85.703111 303.132444c-9.016889-56.120889 137.813333-64.341333 137.813333-64.341333z" fill="#66757F" p-id="5234"></path><path d="M231.111111 203.377778s-7.68 31.402667-11.548444 53.219555c-3.868444 21.845333 6.428444 36.864 76.942222 51.882667 93.496889 19.911111 303.758222 19.683556 428.316444-10.894222 50.033778-12.288 82.090667-20.48 78.250667-45.027556-4.750222-30.378667-5.575111-30.321778-15.388444-62.805333 0 0-42.012444 14.279111-97.479112 27.306667-75.662222 17.749333-283.420444 25.912889-383.459555 4.096-53.304889-11.662222-75.633778-17.777778-75.633778-17.777778z m-3.868444 396.885333c-10.069333 4.124444 83.086222 39.196444 212.764444 41.472 135.708444 2.389333 177.322667 11.093333 146.375111 41.500445-32.597333 32-24.234667 82.318222-21.930666 97.223111 2.304 14.904889 58.225778 54.499556 62.805333 72.817777 4.579556 18.346667-34.958222 169.557333-34.958222 169.557334l-248.291556-7.168c-72.96-251.562667-82.005333-241.806222-116.764444-386.958222-6.855111-28.672 0-28.444444 0-28.444445z" fill="#292F33" p-id="5235"></path><path d="M198.798222 601.429333c-10.069333 4.152889 83.086222 39.196444 212.764445 41.472 135.708444 2.389333 177.322667 11.093333 146.375111 41.500445-32.597333 32-18.887111 82.318222-16.583111 97.223111 2.304 14.904889 52.878222 54.499556 57.486222 72.846222 4.551111 18.318222-35.015111 169.528889-35.015111 169.528889l-248.291556-7.168c-72.96-251.562667-82.005333-241.806222-116.764444-386.958222-6.826667-28.672 0.028444-28.444444 0.028444-28.444445z" fill="#66757F" p-id="5236"></path><path d="M797.923556 600.263111c10.069333 4.124444-83.086222 39.196444-212.736 41.472-135.708444 2.389333-177.322667 11.093333-146.375112 41.500445 32.597333 32 84.650667 82.261333 82.375112 97.166222-2.304 14.904889-118.670222 54.556444-123.249778 72.874666-4.579556 18.346667 34.958222 169.557333 34.958222 169.557334l248.291556-7.168c72.96-251.562667 82.005333-241.806222 116.736-386.958222 6.855111-28.672 0-28.444444 0-28.444445z" fill="#292F33" p-id="5237"></path><path d="M823.694222 600.263111c10.069333 4.124444-83.086222 39.196444-212.736 41.472-135.708444 2.389333-177.322667 11.093333-146.375111 41.500445 32.597333 32 84.679111 82.261333 82.375111 97.166222-2.304 14.904889-118.670222 54.556444-123.249778 72.874666-4.579556 18.346667 34.958222 169.557333 34.958223 169.557334l246.243555 0.284444c72.96-251.562667 84.053333-249.258667 118.812445-394.410666 6.826667-28.672-0.028444-28.444444-0.028445-28.444445z" fill="#66757F" p-id="5238"></path></svg>