<svg t="1735314091559" class="icon" viewBox="0 0 1024 1024" version="1.1" xmlns="http://www.w3.org/2000/svg" p-id="12618" width="200" height="200"><path d="M1023.966722 461.330535a77.769106 77.769106 0 0 1-6.706881 32.100875 83.196048 83.196048 0 0 1-18.123939 26.059562 93.742747 93.742747 0 0 1-26.878723 18.072742 79.356231 79.356231 0 0 1-33.073629 7.014067h-359.918904a87.035866 87.035866 0 0 1 60.003549 22.066151 70.755039 70.755039 0 0 1 24.830821 55.139781 76.796352 76.796352 0 0 1-24.830821 57.187684 83.042455 83.042455 0 0 1-60.003549 24.062857h-32.049678a84.578383 84.578383 0 0 1 33.073629 6.502091 98.606516 98.606516 0 0 1 27.390699 17.04879 75.311623 75.311623 0 0 1 18.635915 25.086809 72.034978 72.034978 0 0 1 6.706881 30.71854 55.293374 55.293374 0 0 1-9.829933 31.5889 97.275379 97.275379 0 0 1-25.854772 25.598784 135.417568 135.417568 0 0 1-37.220632 17.560766 148.728935 148.728935 0 0 1-43.978711 6.502091 74.95324 74.95324 0 0 1 57.90445 23.550881 81.916109 81.916109 0 0 1 21.707769 57.648462 52.938285 52.938285 0 0 1-12.389812 35.838298 106.849325 106.849325 0 0 1-31.025726 24.574832 148.831331 148.831331 0 0 1-39.831708 14.54011 187.536692 187.536692 0 0 1-38.807757 4.505386H160.263748a180.010649 180.010649 0 0 1-63.587379-11.007477 152.773543 152.773543 0 0 1-50.685593-30.718541 141.970856 141.970856 0 0 1-33.636802-47.613739 154.719051 154.719051 0 0 1-12.389812-63.177799v-315.888995q0-20.069447 1.535927-40.599671a153.89989 153.89989 0 0 1 7.782031-38.602967 100.654419 100.654419 0 0 1 19.14789-33.073629 89.390954 89.390954 0 0 1 35.838298-24.062857 422.328739 422.328739 0 0 0 76.540364-43.620328 599.011547 599.011547 0 0 0 85.346346-71.676595 443.985311 443.985311 0 0 0 69.833483-91.285264 202.332789 202.332789 0 0 0 28.977824-102.395136 165.26575 165.26575 0 0 1 8.805982-51.197568 102.395136 102.395136 0 0 1 19.659866-34.097581A74.338869 74.338869 0 0 1 408.571954 0.040446a92.821191 92.821191 0 0 1 63.99696 23.038906 136.595112 136.595112 0 0 1 37.374224 74.236473 486.376897 486.376897 0 0 1-5.119756 94.254723 568.293006 568.293006 0 0 1-22.731721 92.769994 402.720071 402.720071 0 0 1-49.661641 99.78406h506.855925a88.367003 88.367003 0 0 1 60.003549 21.554176A70.345459 70.345459 0 0 1 1023.966722 461.330535z" fill="#ffffff" p-id="12619"></path></svg>